<svg width="14" height="14" viewBox="0 0 14 14" fill="none" xmlns="http://www.w3.org/2000/svg">
<path d="M12.6875 6.83403C12.6838 6.76579 12.6561 6.70107 12.6092 6.65132C12.5624 6.60157 12.4995 6.57001 12.4316 6.56223L11.7305 6.44876C11.6989 6.44358 11.6699 6.42835 11.6477 6.40534C11.6256 6.38233 11.6114 6.35277 11.6074 6.32106C11.594 6.23493 11.5801 6.14551 11.5609 6.06075C11.5548 6.02992 11.5584 5.99793 11.5713 5.96925C11.5842 5.94057 11.6057 5.91664 11.6329 5.90079L12.2557 5.55489C12.3176 5.52336 12.3657 5.4702 12.3909 5.40551C12.4161 5.34083 12.4167 5.26913 12.3925 5.20407L12.2845 4.90602C12.2608 4.84073 12.2138 4.78648 12.1526 4.75363C12.0914 4.72079 12.0203 4.71167 11.9528 4.72801L11.2541 4.86473C11.2229 4.87032 11.1907 4.86589 11.1621 4.8521C11.1336 4.8383 11.1101 4.81583 11.095 4.7879C11.0543 4.71161 11.01 4.63395 10.9638 4.55766C10.947 4.53048 10.9391 4.49874 10.9413 4.46687C10.9434 4.43499 10.9555 4.4046 10.9758 4.37993L11.4406 3.8429C11.4878 3.7922 11.515 3.72603 11.5169 3.65678C11.5189 3.58753 11.4956 3.51994 11.4513 3.46665L11.2484 3.22301C11.2043 3.16954 11.1419 3.13434 11.0733 3.12424C11.0047 3.11414 10.9348 3.12985 10.8771 3.16833L10.2654 3.53555C10.2383 3.5518 10.2066 3.5589 10.1752 3.5558C10.1437 3.55269 10.1141 3.53956 10.0907 3.51833C10.0231 3.45899 9.95395 3.40184 9.88915 3.34907C9.86427 3.32944 9.8463 3.3024 9.83785 3.27186C9.82939 3.24133 9.83088 3.20889 9.84211 3.17926L10.0953 2.51208C10.1229 2.44842 10.1261 2.37684 10.1044 2.31096C10.0827 2.24507 10.0375 2.18946 9.97747 2.15469L9.70157 1.99364C9.64149 1.959 9.57075 1.94774 9.50289 1.96201C9.43502 1.97629 9.37482 2.01511 9.33379 2.07102L8.88672 2.63266C8.87064 2.65707 8.84656 2.67512 8.81862 2.6837C8.79067 2.69229 8.76061 2.69087 8.7336 2.67969C8.71692 2.67286 8.57583 2.61516 8.46618 2.57852C8.4361 2.56872 8.40995 2.54955 8.39155 2.52382C8.37315 2.49809 8.36346 2.46714 8.36391 2.43551L8.37458 1.72266C8.37838 1.65306 8.35669 1.58445 8.31355 1.52969C8.27042 1.47492 8.2088 1.43776 8.14024 1.42516L7.82715 1.37047C7.75894 1.35869 7.68876 1.37207 7.62967 1.40813C7.57058 1.44419 7.52658 1.50048 7.50586 1.56653L7.27344 2.24493C7.26289 2.27504 7.24296 2.30098 7.21658 2.31894C7.19021 2.33691 7.15877 2.34594 7.12688 2.34473H6.86028C6.82864 2.34538 6.79759 2.33603 6.77157 2.31801C6.74555 2.3 6.72588 2.27423 6.71536 2.24438L6.48403 1.56981C6.46368 1.50327 6.41977 1.44644 6.36053 1.40995C6.30128 1.37346 6.23077 1.35981 6.16219 1.37157L5.84856 1.42626C5.78044 1.43876 5.71916 1.47555 5.67612 1.52981C5.63307 1.58407 5.61117 1.65211 5.6145 1.72129L5.62543 2.43661C5.62565 2.46871 5.6155 2.50003 5.59648 2.5259C5.57746 2.55176 5.5506 2.5708 5.51989 2.58016C5.45727 2.6045 5.32137 2.65645 5.25958 2.67942C5.20489 2.69911 5.14528 2.67751 5.09715 2.622L4.65254 2.07512C4.61175 2.01887 4.5516 1.97968 4.48366 1.96509C4.41572 1.9505 4.34479 1.96155 4.2845 1.9961L4.00942 2.15551C3.94873 2.19035 3.90308 2.24642 3.88126 2.31291C3.85945 2.3794 3.86303 2.45161 3.89129 2.51563L4.14422 3.18118C4.15526 3.21087 4.15671 3.24327 4.14837 3.27383C4.14003 3.30438 4.12232 3.33156 4.09774 3.35153C4.03129 3.40622 3.96321 3.4609 3.8954 3.52161C3.87211 3.54267 3.8427 3.55574 3.81145 3.55888C3.78021 3.56203 3.74878 3.5551 3.72176 3.53911L3.11719 3.16477C3.05914 3.12701 2.9893 3.11173 2.92078 3.1218C2.85227 3.13187 2.78978 3.16659 2.74504 3.21946L2.54297 3.46254C2.49809 3.51547 2.4743 3.58309 2.47617 3.65247C2.47804 3.72184 2.50542 3.78808 2.55309 3.83852L3.02012 4.37501C3.04085 4.39918 3.05324 4.42939 3.05545 4.46115C3.05767 4.49292 3.04959 4.52455 3.03243 4.55137C2.98567 4.62575 2.9411 4.70395 2.90063 4.78215C2.88549 4.81029 2.86183 4.8329 2.83305 4.84675C2.80426 4.8606 2.77182 4.86498 2.7404 4.85926L2.04286 4.72446C1.97532 4.70816 1.90415 4.7173 1.84292 4.75013C1.78169 4.78297 1.7347 4.83719 1.7109 4.90247L1.60153 5.19997C1.57735 5.26512 1.57792 5.33687 1.60312 5.40163C1.62832 5.46639 1.6764 5.51966 1.73825 5.55133L2.36114 5.89723C2.38915 5.91269 2.41137 5.93685 2.42444 5.96605C2.43751 5.99525 2.44073 6.02792 2.4336 6.05911L2.42704 6.09383C2.41282 6.17012 2.39969 6.24231 2.38711 6.31915C2.38277 6.35045 2.36863 6.37958 2.34672 6.40237C2.32482 6.42516 2.29627 6.44044 2.26516 6.44602L1.5627 6.5595C1.494 6.56793 1.43073 6.60108 1.38468 6.65276C1.33864 6.70444 1.31299 6.77111 1.3125 6.84032V7.15696C1.3121 7.22643 1.3375 7.29359 1.38377 7.34542C1.43004 7.39724 1.4939 7.43006 1.56297 7.43751L2.26516 7.55071C2.29671 7.55584 2.32576 7.57105 2.34794 7.59408C2.37012 7.6171 2.38425 7.64668 2.38821 7.6784C2.40161 7.76481 2.41555 7.85395 2.43469 7.93872C2.44086 7.96955 2.43724 8.00154 2.42435 8.03021C2.41146 8.05889 2.38993 8.08283 2.36278 8.09868L1.74016 8.44512C1.67831 8.47665 1.63021 8.52981 1.605 8.5945C1.57979 8.65918 1.57924 8.73088 1.60344 8.79594L1.71282 9.09399C1.73656 9.15924 1.7835 9.21346 1.84468 9.2463C1.90586 9.27913 1.977 9.28828 2.0445 9.272L2.74313 9.13665C2.77437 9.13098 2.80661 9.13536 2.8352 9.14917C2.8638 9.16297 2.88728 9.18549 2.90227 9.21348C2.94329 9.29004 2.98731 9.36743 3.03352 9.44372C3.05038 9.47087 3.0583 9.50263 3.05614 9.53452C3.05398 9.56641 3.04186 9.59682 3.02149 9.62145L2.55665 10.1582C2.50887 10.2085 2.48112 10.2745 2.4786 10.3439C2.47608 10.4132 2.49897 10.4811 2.54297 10.5347L2.74559 10.7784C2.78969 10.8319 2.85211 10.8671 2.92072 10.8772C2.98934 10.8873 3.05926 10.8716 3.11692 10.8331L3.7286 10.4658C3.75572 10.4496 3.78734 10.4425 3.81881 10.4456C3.85027 10.4487 3.8799 10.4618 3.90332 10.4831C3.97114 10.5424 4.04004 10.5995 4.10485 10.6523C4.1297 10.672 4.14767 10.699 4.15617 10.7295C4.16467 10.76 4.16327 10.7924 4.15215 10.8221L3.89868 11.4893C3.8711 11.553 3.86787 11.6245 3.8896 11.6904C3.91132 11.7563 3.95649 11.8119 4.01653 11.8467L4.29297 12.0064C4.35302 12.041 4.42374 12.0523 4.4916 12.0381C4.55946 12.0239 4.61969 11.9851 4.66075 11.9293L5.11329 11.3728C5.15157 11.3255 5.21172 11.3045 5.25629 11.3225C5.35145 11.3619 5.41516 11.384 5.52809 11.4218C5.55817 11.4316 5.58433 11.4508 5.60277 11.4765C5.62122 11.5022 5.63097 11.5331 5.63063 11.5648L5.61969 12.2771C5.616 12.3467 5.63774 12.4152 5.68086 12.4699C5.72397 12.5247 5.78552 12.5619 5.85403 12.5746L6.16711 12.6293C6.23534 12.6412 6.30557 12.6278 6.36469 12.5918C6.42381 12.5557 6.46779 12.4993 6.4884 12.4332L6.72082 11.7559C6.73134 11.7258 6.75126 11.6998 6.77765 11.6818C6.80403 11.6639 6.83549 11.6548 6.86739 11.6561H7.13399C7.16564 11.6554 7.1967 11.6647 7.22273 11.6828C7.24876 11.7008 7.26842 11.7266 7.27891 11.7565L7.51051 12.431C7.52845 12.4896 7.56469 12.5409 7.6139 12.5773C7.66311 12.6138 7.7227 12.6335 7.78395 12.6336C7.80027 12.6337 7.81657 12.6322 7.83262 12.6293L8.14626 12.5746C8.21438 12.5621 8.27565 12.5253 8.3187 12.471C8.36175 12.4168 8.38364 12.3487 8.38032 12.2795L8.36938 11.5642C8.36917 11.5327 8.37899 11.5019 8.39743 11.4764C8.41586 11.4508 8.44195 11.4318 8.47192 11.422C8.57692 11.3868 8.65075 11.3583 8.71555 11.3332L8.73196 11.3269C8.81672 11.2976 8.85774 11.3332 8.88153 11.3627L9.33954 11.9268C9.38059 11.9826 9.44076 12.0213 9.50856 12.0355C9.57636 12.0498 9.64702 12.0385 9.70704 12.0039L9.98239 11.8445C10.0426 11.8097 10.0879 11.754 10.1097 11.6879C10.1314 11.6218 10.128 11.55 10.1002 11.4863L9.84758 10.8207C9.83644 10.7911 9.8349 10.7587 9.84319 10.7281C9.85149 10.6975 9.86919 10.6703 9.89379 10.6504C9.96024 10.5957 10.0283 10.541 10.0961 10.4803C10.1196 10.4592 10.1492 10.4461 10.1806 10.4431C10.212 10.44 10.2435 10.4471 10.2706 10.4634L10.8828 10.8298C10.9409 10.8676 11.0107 10.8829 11.0792 10.8728C11.1478 10.8628 11.2103 10.828 11.255 10.7751L11.4573 10.5317C11.5022 10.4788 11.526 10.4112 11.5241 10.3418C11.5222 10.2724 11.4949 10.2062 11.4472 10.1557L10.9807 9.6179C10.96 9.59372 10.9476 9.56351 10.9454 9.53175C10.9432 9.49998 10.9512 9.46835 10.9684 9.44153C11.0152 9.36743 11.0597 9.28922 11.1002 9.21075C11.1154 9.18267 11.1391 9.16011 11.1678 9.14627C11.1966 9.13242 11.229 9.128 11.2604 9.13364L11.9572 9.26954C12.0247 9.28583 12.0959 9.27669 12.1571 9.24386C12.2183 9.21103 12.2653 9.1568 12.2891 9.09153L12.3971 8.79403C12.4213 8.72892 12.4207 8.65721 12.3955 8.59249C12.3703 8.52778 12.3222 8.47456 12.2604 8.44293L11.637 8.09649C11.6093 8.08088 11.5875 8.05678 11.5746 8.02777C11.5618 7.99876 11.5586 7.96638 11.5656 7.93543L11.5722 7.90071C11.5864 7.82442 11.5995 7.75223 11.6121 7.6754C11.6164 7.64409 11.6306 7.61496 11.6525 7.59217C11.6744 7.56938 11.7029 7.5541 11.734 7.54852L12.4365 7.43532C12.5054 7.42701 12.5688 7.39388 12.615 7.34214C12.6612 7.2904 12.687 7.22359 12.6875 7.15422V6.83403ZM4.96426 9.40434C4.93019 9.46359 4.88254 9.51391 4.82524 9.55117C4.76793 9.58843 4.7026 9.61155 4.63462 9.61865C4.56664 9.62575 4.49795 9.61662 4.43418 9.59201C4.37042 9.5674 4.3134 9.52801 4.26782 9.47708C3.6518 8.79595 3.31167 7.90973 3.31379 6.99136C3.31592 6.07299 3.66014 5.18836 4.2793 4.51008C4.32512 4.45917 4.38238 4.41988 4.44637 4.39543C4.51035 4.37099 4.57923 4.3621 4.64732 4.3695C4.71541 4.3769 4.78077 4.40037 4.83802 4.43798C4.89526 4.47559 4.94275 4.52626 4.97657 4.58583L6.22481 6.7829C6.26229 6.84842 6.28201 6.9226 6.28201 6.99809C6.28201 7.07358 6.26229 7.14776 6.22481 7.21329L4.96426 9.40434ZM7 10.6944C6.7398 10.6945 6.48032 10.667 6.2259 10.6124C6.15963 10.5976 6.09777 10.5674 6.04535 10.5242C5.99292 10.481 5.95141 10.4261 5.92416 10.3639C5.89692 10.3017 5.88472 10.2339 5.88854 10.1661C5.89237 10.0983 5.91211 10.0324 5.94618 9.97364L7.20399 7.78614C7.24182 7.72022 7.29638 7.66546 7.36216 7.62739C7.42794 7.58931 7.5026 7.56928 7.5786 7.5693H10.0981C10.1659 7.5692 10.2329 7.58508 10.2934 7.61567C10.354 7.64625 10.4065 7.69068 10.4468 7.74535C10.487 7.80002 10.5137 7.8634 10.5249 7.93034C10.536 7.99729 10.5313 8.06592 10.5109 8.13067C10.0327 9.61598 8.64063 10.6944 7 10.6944ZM7.20536 6.21278L5.96094 4.02145C5.92722 3.96261 5.90781 3.89665 5.90429 3.82892C5.90077 3.76119 5.91324 3.69358 5.94068 3.63156C5.96813 3.56954 6.00978 3.51484 6.06227 3.4719C6.11477 3.42895 6.17663 3.39896 6.24286 3.38434C6.49182 3.33187 6.74557 3.30548 7 3.30559C8.64063 3.30559 10.0327 4.38403 10.5101 5.87016C10.5304 5.93492 10.5352 6.00354 10.5241 6.07049C10.5129 6.13743 10.4861 6.20081 10.4459 6.25548C10.4057 6.31015 10.3532 6.35458 10.2926 6.38516C10.232 6.41575 10.1651 6.43163 10.0972 6.43153H7.58161C7.50513 6.43168 7.42999 6.4115 7.36388 6.37307C7.29777 6.33463 7.24306 6.27931 7.20536 6.21278Z" fill="#4B77C2"/>
</svg>
