<svg width="14" height="14" viewBox="0 0 14 14" fill="none" xmlns="http://www.w3.org/2000/svg">
<path d="M5.375 6.5H1.125C0.826631 6.5 0.540483 6.38147 0.329505 6.1705C0.118526 5.95952 0 5.67337 0 5.375V1.125C0 0.826631 0.118526 0.540483 0.329505 0.329505C0.540483 0.118526 0.826631 0 1.125 0H5.375C5.67337 0 5.95952 0.118526 6.1705 0.329505C6.38147 0.540483 6.5 0.826631 6.5 1.125V5.375C6.5 5.67337 6.38147 5.95952 6.1705 6.1705C5.95952 6.38147 5.67337 6.5 5.375 6.5ZM12.875 6.5H8.625C8.32663 6.5 8.04048 6.38147 7.8295 6.1705C7.61853 5.95952 7.5 5.67337 7.5 5.375V1.125C7.5 0.826631 7.61853 0.540483 7.8295 0.329505C8.04048 0.118526 8.32663 0 8.625 0H12.875C13.1734 0 13.4595 0.118526 13.6705 0.329505C13.8815 0.540483 14 0.826631 14 1.125V5.375C14 5.67337 13.8815 5.95952 13.6705 6.1705C13.4595 6.38147 13.1734 6.5 12.875 6.5ZM5.375 14H1.125C0.826631 14 0.540483 13.8815 0.329505 13.6705C0.118526 13.4595 0 13.1734 0 12.875V8.625C0 8.32663 0.118526 8.04048 0.329505 7.8295C0.540483 7.61853 0.826631 7.5 1.125 7.5H5.375C5.67337 7.5 5.95952 7.61853 6.1705 7.8295C6.38147 8.04048 6.5 8.32663 6.5 8.625V12.875C6.5 13.1734 6.38147 13.4595 6.1705 13.6705C5.95952 13.8815 5.67337 14 5.375 14ZM12.875 14H8.625C8.32663 14 8.04048 13.8815 7.8295 13.6705C7.61853 13.4595 7.5 13.1734 7.5 12.875V8.625C7.5 8.32663 7.61853 8.04048 7.8295 7.8295C8.04048 7.61853 8.32663 7.5 8.625 7.5H12.875C13.1734 7.5 13.4595 7.61853 13.6705 7.8295C13.8815 8.04048 14 8.32663 14 8.625V12.875C14 13.1734 13.8815 13.4595 13.6705 13.6705C13.4595 13.8815 13.1734 14 12.875 14Z" fill="#4B77C2"/>
</svg>
