<svg width="14" height="14" viewBox="0 0 14 14" fill="none" xmlns="http://www.w3.org/2000/svg">
<path d="M12.0288 3.0625H11.3775C11.3768 3.0625 11.3762 3.06276 11.3757 3.06322C11.3753 3.06368 11.375 3.06431 11.375 3.06496V11.375C11.375 11.6071 11.4672 11.8296 11.6313 11.9937C11.7954 12.1578 12.0179 12.25 12.25 12.25C12.4821 12.25 12.7046 12.1578 12.8687 11.9937C13.0328 11.8296 13.125 11.6071 13.125 11.375V4.15871C13.125 3.86798 13.0095 3.58915 12.8039 3.38357C12.5983 3.17799 12.3195 3.0625 12.0288 3.0625Z" fill="#4B77C2"/>
<path d="M10.5 11.375V1.96875C10.5 1.82512 10.4717 1.68289 10.4167 1.55019C10.3618 1.41749 10.2812 1.29692 10.1796 1.19535C10.0781 1.09379 9.95751 1.01322 9.82481 0.958257C9.69211 0.903291 9.54988 0.875 9.40625 0.875H1.96875C1.67867 0.875 1.40047 0.990234 1.19535 1.19535C0.990234 1.40047 0.875 1.67867 0.875 1.96875V11.5938C0.875 11.9999 1.03633 12.3893 1.32349 12.6765C1.61066 12.9637 2.00014 13.125 2.40625 13.125H11.7811C11.7852 13.125 11.7893 13.1242 11.7931 13.1227C11.797 13.1211 11.8004 13.1188 11.8034 13.1159C11.8063 13.1129 11.8086 13.1095 11.8102 13.1056C11.8117 13.1018 11.8125 13.0977 11.8125 13.0936C11.8125 13.0867 11.8102 13.08 11.806 13.0746C11.8018 13.0691 11.7959 13.0652 11.7893 13.0635C11.4192 12.962 11.0926 12.7418 10.8597 12.4368C10.6268 12.1318 10.5005 11.7588 10.5 11.375ZM2.625 3.5C2.625 3.38397 2.67109 3.27269 2.75314 3.19064C2.83519 3.10859 2.94647 3.0625 3.0625 3.0625H4.8125C4.92853 3.0625 5.03981 3.10859 5.12186 3.19064C5.20391 3.27269 5.25 3.38397 5.25 3.5V5.25C5.25 5.36603 5.20391 5.47731 5.12186 5.55936C5.03981 5.64141 4.92853 5.6875 4.8125 5.6875H3.0625C2.94647 5.6875 2.83519 5.64141 2.75314 5.55936C2.67109 5.47731 2.625 5.36603 2.625 5.25V3.5ZM8.3125 10.9375H3.0748C2.83937 10.9375 2.6373 10.7565 2.62555 10.5211C2.6227 10.4619 2.63189 10.4028 2.65256 10.3473C2.67323 10.2918 2.70496 10.2411 2.74581 10.1982C2.78667 10.1553 2.8358 10.1212 2.89024 10.0979C2.94467 10.0745 3.00328 10.0625 3.0625 10.0625H8.30019C8.53562 10.0625 8.7377 10.2435 8.74945 10.4789C8.7523 10.5381 8.74311 10.5972 8.72244 10.6527C8.70177 10.7082 8.67004 10.7589 8.62919 10.8018C8.58833 10.8447 8.5392 10.8788 8.48476 10.9021C8.43033 10.9255 8.37172 10.9375 8.3125 10.9375ZM8.3125 9.1875H3.0748C2.83937 9.1875 2.6373 9.00648 2.62555 8.77105C2.6227 8.7119 2.63189 8.65278 2.65256 8.59729C2.67323 8.54179 2.70496 8.49107 2.74581 8.44819C2.78667 8.40532 2.8358 8.37118 2.89024 8.34786C2.94467 8.32453 3.00328 8.31251 3.0625 8.3125H8.30019C8.53562 8.3125 8.7377 8.49352 8.74945 8.72895C8.7523 8.7881 8.74311 8.84722 8.72244 8.90271C8.70177 8.95821 8.67004 9.00893 8.62919 9.05181C8.58833 9.09468 8.5392 9.12882 8.48476 9.15214C8.43033 9.17547 8.37172 9.18749 8.3125 9.1875ZM8.3125 7.4375H3.0748C2.83937 7.4375 2.6373 7.25648 2.62555 7.02105C2.6227 6.9619 2.63189 6.90278 2.65256 6.84729C2.67323 6.79179 2.70496 6.74107 2.74581 6.69819C2.78667 6.65532 2.8358 6.62118 2.89024 6.59786C2.94467 6.57453 3.00328 6.56251 3.0625 6.5625H8.30019C8.53562 6.5625 8.7377 6.74352 8.74945 6.97895C8.7523 7.0381 8.74311 7.09722 8.72244 7.15271C8.70177 7.20821 8.67004 7.25893 8.62919 7.30181C8.58833 7.34468 8.5392 7.37882 8.48476 7.40214C8.43033 7.42547 8.37172 7.43749 8.3125 7.4375ZM8.3125 5.6875H6.5748C6.33938 5.6875 6.1373 5.50648 6.12555 5.27105C6.1227 5.2119 6.13189 5.15278 6.15256 5.09729C6.17323 5.04179 6.20496 4.99107 6.24581 4.94819C6.28667 4.90532 6.3358 4.87118 6.39024 4.84786C6.44467 4.82453 6.50328 4.81251 6.5625 4.8125H8.30019C8.53562 4.8125 8.7377 4.99352 8.74945 5.22895C8.7523 5.2881 8.74311 5.34722 8.72244 5.40271C8.70177 5.45821 8.67004 5.50893 8.62919 5.55181C8.58833 5.59468 8.5392 5.62882 8.48476 5.65214C8.43033 5.67547 8.37172 5.68749 8.3125 5.6875ZM8.3125 3.9375H6.5748C6.33938 3.9375 6.1373 3.75648 6.12555 3.52105C6.1227 3.4619 6.13189 3.40278 6.15256 3.34729C6.17323 3.29179 6.20496 3.24107 6.24581 3.19819C6.28667 3.15532 6.3358 3.12118 6.39024 3.09786C6.44467 3.07453 6.50328 3.06251 6.5625 3.0625H8.30019C8.53562 3.0625 8.7377 3.24352 8.74945 3.47895C8.7523 3.5381 8.74311 3.59722 8.72244 3.65271C8.70177 3.70821 8.67004 3.75893 8.62919 3.80181C8.58833 3.84468 8.5392 3.87882 8.48476 3.90214C8.43033 3.92547 8.37172 3.93749 8.3125 3.9375Z" fill="#4B77C2"/>
</svg>
