<svg width="14" height="14" viewBox="0 0 14 14" fill="none" xmlns="http://www.w3.org/2000/svg">
<path d="M10.0625 2.625H3.9375C3.82147 2.625 3.71019 2.57891 3.62814 2.49686C3.54609 2.41481 3.5 2.30353 3.5 2.1875C3.5 2.07147 3.54609 1.96019 3.62814 1.87814C3.71019 1.79609 3.82147 1.75 3.9375 1.75H10.0625C10.1785 1.75 10.2898 1.79609 10.3719 1.87814C10.4539 1.96019 10.5 2.07147 10.5 2.1875C10.5 2.30353 10.4539 2.41481 10.3719 2.49686C10.2898 2.57891 10.1785 2.625 10.0625 2.625ZM10.9375 3.9375H3.0625C2.94647 3.9375 2.83519 3.89141 2.75314 3.80936C2.67109 3.72731 2.625 3.61603 2.625 3.5C2.625 3.38397 2.67109 3.27269 2.75314 3.19064C2.83519 3.10859 2.94647 3.0625 3.0625 3.0625H10.9375C11.0535 3.0625 11.1648 3.10859 11.2469 3.19064C11.3289 3.27269 11.375 3.38397 11.375 3.5C11.375 3.61603 11.3289 3.72731 11.2469 3.80936C11.1648 3.89141 11.0535 3.9375 10.9375 3.9375ZM11.4606 12.25H2.53941C2.21413 12.2496 1.90227 12.1203 1.67225 11.8902C1.44224 11.6602 1.31286 11.3484 1.3125 11.0231V5.60191C1.31286 5.27663 1.44224 4.96477 1.67225 4.73475C1.90227 4.50474 2.21413 4.37536 2.53941 4.375H11.4606C11.7859 4.37536 12.0977 4.50474 12.3277 4.73475C12.5578 4.96477 12.6871 5.27663 12.6875 5.60191V11.0231C12.6871 11.3484 12.5578 11.6602 12.3277 11.8902C12.0977 12.1203 11.7859 12.2496 11.4606 12.25Z" fill="#4B77C2"/>
</svg>
