<svg width="14" height="14" viewBox="0 0 14 14" fill="none" xmlns="http://www.w3.org/2000/svg">
<path d="M7.07934 1.31249C3.88067 1.26929 1.26934 3.88062 1.31254 7.07929C1.3552 10.147 3.85305 12.6448 6.92074 12.6875C10.12 12.7312 12.7307 10.1199 12.687 6.92124C12.6449 3.853 10.147 1.35515 7.07934 1.31249ZM6.97871 5.47175C6.98445 5.43894 6.99074 5.40613 6.99813 5.37359C7.06719 5.05425 7.22107 4.75944 7.44356 4.52019C7.79602 4.14476 8.29559 3.93749 8.85039 3.93749C9.08381 3.93654 9.31564 3.97594 9.53563 4.05398C9.80909 4.15134 10.0554 4.31258 10.2539 4.52429C10.5461 4.84006 10.72 5.24717 10.7461 5.67656C10.7537 5.78033 10.7537 5.88451 10.7461 5.98828C10.7251 6.28237 10.649 6.56989 10.5219 6.83593C10.5081 6.86492 10.4936 6.89363 10.4784 6.92206C10.4481 6.97867 10.4155 7.03417 10.3805 7.08777C10.3109 7.19477 10.2319 7.29542 10.1446 7.38855C9.78582 7.77136 9.32645 7.98273 8.85094 7.98273C8.67263 7.98261 8.49555 7.95324 8.32676 7.89578C8.27005 7.87652 8.21438 7.85434 8.15996 7.82933C7.93207 7.72302 7.72709 7.5733 7.55649 7.38855C7.20137 7.00336 6.98904 6.50806 6.95492 5.98527C6.95 5.91454 6.94836 5.84454 6.95 5.77527C6.95212 5.67371 6.96171 5.57245 6.97871 5.4723V5.47175ZM2.88453 6.1373C2.89784 5.94219 2.946 5.75105 3.02672 5.57292C3.04949 5.52331 3.07487 5.47494 3.10274 5.428C3.15848 5.33392 3.22441 5.24625 3.29934 5.1666C3.41034 5.04818 3.53958 4.9483 3.68215 4.87074C3.75336 4.83182 3.8275 4.79854 3.90391 4.77121C4.19668 4.66881 4.51144 4.64625 4.81582 4.70585C5.13835 4.76823 5.43291 4.93093 5.65746 5.1707C5.92392 5.45833 6.07408 5.83466 6.07883 6.22671C6.0802 6.28441 6.07883 6.34238 6.07473 6.40117C6.05804 6.62629 6.00254 6.84684 5.91067 7.05304C5.86668 7.15232 5.81426 7.24764 5.75399 7.33796C5.63807 7.51313 5.49219 7.66651 5.32305 7.79105C5.28203 7.82031 5.23938 7.84765 5.19535 7.87499C5.10877 7.92656 5.01715 7.96917 4.92192 8.00214C4.77952 8.0519 4.62978 8.07741 4.47895 8.07761C4.45352 8.07761 4.42809 8.07761 4.40293 8.07542C4.3527 8.07267 4.30267 8.06701 4.25309 8.05847C4.20376 8.04988 4.15492 8.03866 4.1068 8.02484C4.03451 8.00396 3.96393 7.97754 3.8957 7.94581C3.87274 7.93515 3.85031 7.92394 3.82789 7.91218C3.3357 7.65269 2.96465 7.11484 2.89192 6.48703C2.88863 6.45831 2.8859 6.4296 2.88399 6.40062C2.87781 6.31295 2.878 6.22494 2.88453 6.1373ZM4.35891 11.0209C3.63087 10.541 3.04576 9.87362 2.66524 9.08906C2.65281 9.06397 2.65047 9.03507 2.65871 9.00831C2.66696 8.98156 2.68514 8.95898 2.70953 8.94523C3.21758 8.65949 3.86645 8.5039 4.47949 8.5039C4.94434 8.5039 5.31895 8.55859 5.6468 8.66468C5.68397 8.67692 5.71717 8.69889 5.74296 8.72833C5.76874 8.75776 5.78616 8.79358 5.79339 8.83203C5.80062 8.87049 5.79741 8.91018 5.78408 8.94697C5.77075 8.98376 5.7478 9.0163 5.71762 9.0412C5.07914 9.56074 4.66762 10.2044 4.4743 10.9758C4.47141 10.9876 4.46572 10.9985 4.45772 11.0076C4.44971 11.0168 4.43963 11.0239 4.42831 11.0283C4.417 11.0327 4.40479 11.0343 4.39271 11.0331C4.38063 11.0318 4.36904 11.0276 4.35891 11.0209ZM7.00004 11.8125C6.38442 11.8131 5.77446 11.695 5.20356 11.4647C5.18023 11.455 5.16094 11.4376 5.14898 11.4154C5.13702 11.3932 5.13312 11.3675 5.13793 11.3427C5.14887 11.2867 5.1609 11.2355 5.17156 11.1929C5.36625 10.4155 5.8486 9.77101 6.5661 9.32859C7.20293 8.93621 8.01531 8.72019 8.84984 8.72019C9.70188 8.72019 10.4905 8.92746 11.1325 9.31929C11.1489 9.32953 11.1606 9.34571 11.1652 9.36444C11.1699 9.38316 11.1671 9.40295 11.1574 9.41964C10.734 10.147 10.1273 10.7507 9.39788 11.1706C8.66843 11.5904 7.84168 11.8118 7.00004 11.8125Z" fill="#BECEF0"/>
<path d="M6.07499 6.39981C6.07909 6.34102 6.08046 6.28305 6.07909 6.22535C6.08055 6.28277 6.07918 6.34093 6.07499 6.39981ZM2.89245 6.48567C2.96519 7.11457 3.33706 7.65133 3.82843 7.91082C3.33597 7.65133 2.96519 7.11348 2.89245 6.48567ZM6.95464 5.98828C6.94972 5.91755 6.94808 5.84755 6.94972 5.77828C6.94808 5.84664 6.94972 5.91664 6.95464 5.98828Z" fill="#BECEF0"/>
</svg>
